<svg width="664" height="185" viewBox="0 0 664 185" fill="none" xmlns="http://www.w3.org/2000/svg">
<path d="M560.048 164.564L559.504 167H562H594.718H596.327L596.672 165.429L602.486 138.937H618.333L624.331 165.441L624.684 167H626.282H659H661.496L660.952 164.564L628.811 20.5643L628.462 19H626.859H594.141H592.538L592.189 20.5643L560.048 164.564ZM609.919 106.055L610.5 103.467L611.081 106.055H609.919Z" fill="url(#paint0_linear_6_28)" stroke="black" stroke-width="4"/>
<path d="M515 19H513V21V165V167H515H549H551V165V21V19H549H515Z" fill="url(#paint1_linear_6_28)" stroke="black" stroke-width="4"/>
<path d="M451.194 146.35H451.694V145.85V104.35H459.132L479.545 146.07L479.682 146.35H479.994H505.494H506.287L505.945 145.634L483.63 98.9219L501.575 86.7134L501.794 86.5646V86.3V56.6V56.3253L501.562 56.178L476.062 39.978L475.939 39.9H475.794H425.694H425.194V40.4V145.85V146.35H425.694H451.194ZM469.65 82.2H451.694V62.2H469.783L475.294 66.1565V78.6729L469.65 82.2Z" fill="#FFFCFC" stroke="black"/>
<path d="M338.368 39.9H337.868V40.4V145.85V146.35H338.368H388.468H388.618H388.764L388.887 146.271L414.237 130.071L414.468 129.924V129.65V103.85V103.575L414.236 103.428L398.107 93.203L414.233 83.124L414.468 82.9771V82.7V56.6V56.3253L414.236 56.178L388.736 39.978L388.613 39.9H388.468H338.368ZM382.325 124.2H364.368V104.35H382.457L387.968 108.307V120.673L382.325 124.2ZM382.325 82.2H364.368V62.2H382.457L387.968 66.1565V78.6729L382.325 82.2Z" fill="#FFFCFC" stroke="black"/>
<path d="M328.918 40.55V40.051L328.419 40.05L252.819 39.9L252.318 39.899V40.4V145.85V146.35H252.818H328.418H328.918V145.85V124.55V124.05H328.418H278.818V104.5H303.368H303.868V104V82.7V82.2H303.368H278.818V62.2H328.418H328.918V61.7V40.55Z" fill="#FFFCFC" stroke="black"/>
<path d="M174.909 39.9H174.409V40.4V145.85V146.35H174.909H245.709H246.209V145.85V124.55V124.05H245.709H200.909V40.4V39.9H200.409H174.909Z" fill="#FFFCFC" stroke="black"/>
<path d="M164.709 40.55V40.051L164.21 40.05L88.6096 39.9L88.1086 39.899V40.4V145.85V146.35H88.6086H164.209H164.709V145.85V124.55V124.05H164.209H114.609V104.5H139.159H139.659V104V82.7V82.2H139.159H114.609V62.2H164.209H164.709V61.7V40.55Z" fill="#FFFCFC" stroke="black"/>
<path d="M51.7345 0.663111L51.5858 0.5H51.3651L26.4841 0.5H26.2625L26.1137 0.664197L0.629546 28.778L0.5 28.9209V29.1138L0.5 156.147V156.341L0.631105 156.484L26.1152 184.338L26.2639 184.5H26.4841H26.6349H51.3651H51.5159H51.7361L51.8848 184.338L77.3689 156.484L77.5 156.341V156.147V111.112V110.612H77H51.3651H50.8651V111.112V140.586L45.1211 146.536H32.8789L27.1349 140.586V45.4298L32.7549 38.4644H45.2451L50.8651 45.4298V74.1479V74.6479H51.3651H77H77.5V74.1479V29.1138V28.9201L77.3695 28.7769L51.7345 0.663111Z" fill="url(#paint2_linear_6_28)" stroke="black"/>
<defs>
<linearGradient id="paint0_linear_6_28" x1="610.5" y1="21" x2="610.5" y2="165" gradientUnits="userSpaceOnUse">
<stop stop-color="#89B7D9"/>
<stop offset="1" stop-color="#FFFCFC"/>
</linearGradient>
<linearGradient id="paint1_linear_6_28" x1="532" y1="21" x2="532" y2="165" gradientUnits="userSpaceOnUse">
<stop offset="0.18" stop-color="#89B7D9"/>
<stop offset="0.775" stop-color="#FFFCFC"/>
</linearGradient>
<linearGradient id="paint2_linear_6_28" x1="39" y1="1" x2="39" y2="184" gradientUnits="userSpaceOnUse">
<stop offset="0.08" stop-color="#F8F9FC"/>
<stop offset="0.75" stop-color="#89B7D9"/>
</linearGradient>
</defs>
</svg>
